<?xml version="1.0" encoding="utf-8"?>
<svg version="1.1" baseProfile="tiny" id="Layer_1" xmlns="http://www.w3.org/2000/svg" xmlns:xlink="http://www.w3.org/1999/xlink"
	 x="0px" y="0px" viewBox="0 0 500 500" overflow="visible" xml:space="preserve">
<path d="M250,64.5c102.2,0,185.3,83.1,185.3,185.3S352.2,435,250,435S64.7,351.9,64.7,249.8S147.8,64.5,250,64.5 M250,40.4
	c-115.7,0-209.4,93.8-209.4,209.4S134.3,459.2,250,459.2s209.4-93.8,209.4-209.4S365.7,40.4,250,40.4L250,40.4z"/>
<path d="M250,19.4c127.2,0,230.3,103.1,230.3,230.3c0,127.2-103.1,230.3-230.3,230.3S19.7,377,19.7,249.8
	C19.7,122.5,122.8,19.4,250,19.4 M250,9.8c-132.3,0-240,107.7-240,240c0,132.3,107.7,240,240,240s240-107.7,240-240
	C490,117.4,382.3,9.8,250,9.8L250,9.8z"/>
<path d="M220.7,265.8c22.1-1.8,49.9-7.5,68.4-24.2c13.4-12.1,20.2-27.9,20.2-47c0-35.5-30-62.2-78.2-69.7l-4.2,27
	c26.6,4.1,55,17.5,55,42.6c0,11.2-3.6,19.9-11.1,26.7c-20.4,18.5-62.4,18.8-96.3,18.2v18.7l116,116.6h38.7L220.7,265.8z"/>
<rect x="151.6" y="124.8" width="196.8" height="27.3"/>
<rect x="151.6" y="183.9" width="196.8" height="27.3"/>
</svg>
