<svg xmlns="http://www.w3.org/2000/svg" x="0px" y="0px" width="100" height="100" viewBox="0 0 64 64">
<linearGradient id="SVGID_1__FSzu1fADXT9F_gr1" x1="19.468" x2="19.468" y1="29.021" y2="50.128" gradientUnits="userSpaceOnUse"><stop offset="0" stop-color="#8cc5fc"></stop><stop offset="1" stop-color="#d5a8fb"></stop></linearGradient><polygon fill="url(#SVGID_1__FSzu1fADXT9F_gr1)" points="12.3,27.8 6.9,33.6 26.2,57.5 32,50.3"></polygon><linearGradient id="SVGID_2__FSzu1fADXT9F_gr2" x1="43.851" x2="43.851" y1="30.553" y2="50.66" gradientUnits="userSpaceOnUse"><stop offset="0" stop-color="#8cc5fc"></stop><stop offset="1" stop-color="#d5a8fb"></stop></linearGradient><polygon fill="url(#SVGID_2__FSzu1fADXT9F_gr2)" points="51,27.8 56.4,33.6 37.1,57.5 31.3,50.3"></polygon><linearGradient id="SVGID_3__FSzu1fADXT9F_gr3" x1="32" x2="32" y1="6.234" y2="54.641" gradientUnits="userSpaceOnUse"><stop offset="0" stop-color="#1a6dff"></stop><stop offset="1" stop-color="#c822ff"></stop></linearGradient><path fill="url(#SVGID_3__FSzu1fADXT9F_gr3)" d="M58.1,33.4l-25.4-28C32.6,5.1,32.3,5,32,5s-0.6,0.1-0.7,0.3l-25.4,28c-0.3,0.4-0.3,0.9,0,1.3l19.5,23.9	c0.2,0.2,0.5,0.4,0.8,0.4h0c0.3,0,0.6-0.1,0.8-0.4l5.1-6.4l5.1,6.4c0.2,0.2,0.5,0.4,0.8,0.4h0c0.3,0,0.6-0.1,0.8-0.4l19.5-23.9	C58.5,34.3,58.5,33.7,58.1,33.4z M32,49l-5.8-6.9l5.8-6.6l5.8,6.6L32,49z M13.9,27.4l5.6-6.1l11.2,12.8l-5.7,6.5L13.9,27.4z M50.1,27.4l-11,13.1l-5.7-6.5l11.2-12.8L50.1,27.4z M32,7.5l11.1,12.3L32,32.5L20.9,19.8L32,7.5z M26.1,56.4L7.9,34.1l4.7-5.1	l18.1,21.7L26.1,56.4z M37.9,56.4l-4.6-5.8l18.1-21.7l4.7,5.1L37.9,56.4z"></path>
</svg>